HIERARCHY
ROOT Hips
{
    OFFSET 0.000000 0.000000 0.000000
    CHANNELS 6 Xposition Yposition Zposition Zrotation Xrotation Yrotation
    JOINT Spine
    {
        OFFSET -0.000000 7.246840 0.000000
        CHANNELS 3 Zrotation Xrotation Yrotation
        JOINT Spine1
        {
            OFFSET -0.000000 20.289354 0.000000
            CHANNELS 3 Zrotation Xrotation Yrotation
            JOINT Neck
            {
                OFFSET -0.000000 20.206032 1.836912
                CHANNELS 3 Zrotation Xrotation Yrotation
                JOINT Head
                {
                    OFFSET -0.000000 12.372654 -1.767522
                    CHANNELS 3 Zrotation Xrotation Yrotation
                    End Site
                    {
                        OFFSET -0.000000 22.094025 0.000000
                    }
                }
            }
            JOINT LeftShoulder
            {
                OFFSET 3.465871 17.201674 -0.568930
                CHANNELS 3 Zrotation Xrotation Yrotation
                JOINT LeftArm
                {
                    OFFSET 14.070313 0.000000 0.000000
                    CHANNELS 3 Zrotation Xrotation Yrotation
                    JOINT LeftForeArm
                    {
                        OFFSET 26.549477 0.000000 0.000000
                        CHANNELS 3 Zrotation Xrotation Yrotation
                        JOINT LeftHand
                        {
                            OFFSET 18.880413 0.000000 0.000000
                            CHANNELS 3 Zrotation Xrotation Yrotation
                            End Site
                            {
                                OFFSET 13.256415 0.000000 0.000000
                            }
                        }
                    }
                }
            }
            JOINT RightShoulder
            {
                OFFSET -3.526370 17.201674 -0.568930
                CHANNELS 3 Zrotation Xrotation Yrotation
                JOINT RightArm
                {
                    OFFSET -14.070313 0.000000 0.000000
                    CHANNELS 3 Zrotation Xrotation Yrotation
                    JOINT RightForeArm
                    {
                        OFFSET -26.549477 0.000000 0.000000
                        CHANNELS 3 Zrotation Xrotation Yrotation
                        JOINT RightHand
                        {
                            OFFSET -18.880413 0.000000 0.000000
                            CHANNELS 3 Zrotation Xrotation Yrotation
                            End Site
                            {
                                OFFSET -13.256415 0.000000 0.000000
                            }
                        }
                    }
                }
            }
        }
    }
    JOINT LeftUpLeg
    {
        OFFSET 8.837609 0.000000 0.000000
        CHANNELS 3 Zrotation Xrotation Yrotation
        JOINT LeftLeg
        {
            OFFSET -0.000000 -41.345005 0.000000
            CHANNELS 3 Zrotation Xrotation Yrotation
            JOINT LeftFoot
            {
                OFFSET -0.000000 -35.500874 0.000000
                CHANNELS 3 Zrotation Xrotation Yrotation
                JOINT LeftToeBase
                {
                    OFFSET -0.000000 -5.744446 13.256415
                    CHANNELS 3 Zrotation Xrotation Yrotation
                    End Site
                    {
                        OFFSET -0.000000 0.000000 3.535044
                    }
                }
            }
        }
    }
    JOINT RightUpLeg
    {
        OFFSET -8.837609 0.000000 0.000000
        CHANNELS 3 Zrotation Xrotation Yrotation
        JOINT RightLeg
        {
            OFFSET -0.000000 -41.345005 0.000000
            CHANNELS 3 Zrotation Xrotation Yrotation
            JOINT RightFoot
            {
                OFFSET -0.000000 -35.500874 0.000000
                CHANNELS 3 Zrotation Xrotation Yrotation
                JOINT RightToeBase
                {
                    OFFSET -0.000000 -5.744446 13.256415
                    CHANNELS 3 Zrotation Xrotation Yrotation
                    End Site
                    {
                        OFFSET -0.000000 0.000000 3.535044
                    }
                }
            }
        }
    }
}
MOTION
Frames:    9
Frame Time:    0.010000
3.679184    78.567680    -13.948941    3.951942    -1.082741    22.008333    -11.709273    -5.172682    -3.194848    4.694403    12.215285    -3.166719    6.504358    28.921621    -8.719240    4.660787    -31.144304    -6.367673    8.995223    1.422703    6.666437    -69.312141    42.181679    -15.264713    -0.878332    -20.693275    -124.322319    -36.772873    -9.247910    -38.949749    -7.932966    0.398038    8.763006    -129.243454    -34.020996    172.807190    118.810570    -48.773262    -59.116127    -54.931583    69.612434    90.942810    4.676720    -6.752109    6.815199    -0.543345    32.851433    -7.134073    0.179128    -12.844326    -5.986577    -0.233809    -11.989870    0.354947    -19.675032    -8.369524    -12.953752    -6.136117    45.014503    8.087395    25.572626    -6.713367    -2.933270    -0.738695    -17.523972    1.673339    
3.578593    78.722092    -13.903660    3.753004    -1.210925    21.607418    -13.493221    -5.127319    -3.721643    7.963277    11.895479    -3.945681    5.226306    30.356049    -7.993069    4.339139    -32.155369    -5.786747    7.850429    2.019305    5.428826    -70.953735    41.667068    -13.279052    -0.718699    -20.817398    -124.895058    -37.024002    -9.125153    -38.612335    -9.510953    0.649119    7.638092    -130.605331    -32.957317    172.913040    117.375916    -50.256283    -60.397308    -53.676044    68.855240    90.025192    5.149732    -6.594490    6.825085    -0.998326    32.690964    -6.699429    0.061439    -12.428111    -6.130290    -0.205912    -12.143181    0.312965    -19.335630    -8.368362    -13.008584    -6.209137    44.646393    7.988877    25.581064    -6.212990    -2.870155    -0.820056    -17.569290    1.859019    
3.465091    78.984276    -13.823685    3.528481    -1.295160    21.333241    -13.946345    -5.349732    -4.732162    7.773567    12.418196    -4.924416    6.838519    30.515482    -6.928805    2.363106    -32.374874    -5.256774    9.345210    2.988216    6.485068    -72.875023    41.967907    -12.484924    -0.533605    -20.727196    -125.206078    -37.458858    -8.702513    -38.122616    -8.579140    -0.154874    7.564108    -132.513260    -31.947355    173.588898    115.239220    -52.113899    -62.305473    -52.029110    67.642624    88.833656    5.603742    -6.363227    6.822435    -1.343796    32.207607    -6.452785    -0.163637    -11.792548    -6.263948    -0.191470    -12.175322    0.291087    -18.964806    -8.189285    -13.102838    -6.087914    43.957485    7.788458    25.570681    -5.631720    -2.972491    -0.947563    -17.591393    2.148806    
3.369375    79.337158    -13.734240    3.309169    -1.268169    21.205719    -14.970055    -5.538546    -5.754649    9.488788    12.572515    -6.074069    5.753817    31.075666    -5.815823    2.062961    -32.544769    -4.340964    8.981203    3.602814    7.356030    -74.257523    42.397495    -11.157154    -0.471911    -20.843138    -125.536263    -37.714066    -8.664162    -37.994732    -9.446934    -0.612502    7.455050    -133.978195    -30.865925    173.954742    113.096909    -53.656116    -64.456276    -52.364140    66.581711    89.509628    5.890958    -6.068401    6.796295    -1.451959    31.257616    -6.022617    -0.584901    -10.835012    -6.838930    -0.128487    -12.454432    0.195758    -18.685432    -7.867682    -13.278406    -5.673976    42.944157    7.542964    25.510374    -4.975964    -3.314258    -1.040749    -17.626671    2.361470    
3.280389    79.768906    -13.634798    3.050419    -1.151544    21.204863    -15.332967    -5.885552    -6.673624    10.089891    12.629253    -7.000134    4.895593    31.890266    -4.885297    2.223160    -32.830486    -3.385729    9.100441    4.590487    8.316289    -75.291824    42.798512    -10.382298    -0.546462    -20.867865    -125.759727    -38.174820    -8.659477    -37.998234    -9.949844    -0.828173    7.362067    -135.331772    -29.649986    174.334671    111.456772    -54.884113    -66.163811    -52.968262    65.871849    90.269485    6.074080    -5.743042    6.922206    -1.200530    29.938889    -5.995972    -1.114236    -9.538857    -7.463343    -0.111545    -12.546340    0.170067    -18.438477    -7.442861    -13.609251    -5.050432    41.637203    6.991994    25.400112    -4.083443    -3.692435    -1.201934    -17.655907    2.728427    
3.206677    80.272530    -13.544313    2.773094    -0.957059    21.325583    -15.434549    -6.254345    -7.468997    10.303056    12.526728    -7.754488    4.267501    32.816696    -4.128744    2.414900    -33.175777    -2.567585    8.884219    5.653973    9.123246    -75.953140    42.859047    -9.741665    -0.718935    -20.632078    -126.158348    -38.695061    -8.649284    -37.755386    -10.467108    -1.313893    7.272521    -136.562439    -29.489241    174.865570    111.877396    -55.386333    -65.694496    -53.377903    64.696663    90.190697    6.116345    -5.421784    6.958312    -0.759633    28.354017    -5.889240    -1.454425    -7.917049    -7.978218    0.156194    -12.748289    -0.238510    -18.245451    -6.941674    -14.227708    -4.386850    40.088203    6.443331    25.236494    -2.990369    -4.104749    -1.366561    -17.688398    3.103680    
3.142436    80.850372    -13.465086    2.496080    -0.712927    21.579962    -15.396124    -6.581150    -8.069574    10.561996    12.155691    -8.306834    3.194362    33.745235    -3.624216    3.131822    -33.266258    -1.883050    8.290459    6.378870    9.645125    -76.523849    42.941837    -8.730848    -0.906651    -20.562422    -126.591110    -39.192764    -8.879119    -37.471439    -11.304997    -1.321813    6.901260    -137.514877    -28.628563    175.011383    111.095367    -55.944466    -66.480522    -54.059444    63.799019    90.435226    6.037098    -5.106635    6.866774    -0.188242    26.510956    -5.327573    -2.294437    -6.027762    -9.239147    0.074397    -12.742642    -0.113599    -18.086241    -6.372029    -15.201179    -3.811040    38.306484    5.745947    25.081841    -1.572862    -4.268461    -1.532826    -17.613604    3.476757    
3.089511    81.491943    -13.411027    2.233591    -0.412748    21.894070    -14.998017    -6.925930    -8.429086    10.124948    11.776278    -8.563223    2.705400    34.234871    -3.423060    3.789260    -32.945869    -1.477085    8.126757    6.693962    9.989510    -77.581825    43.221584    -7.183947    -1.032769    -20.690399    -126.920555    -39.690491    -9.067197    -37.516792    -11.832562    -1.602952    6.394052    -138.594681    -28.717793    175.297302    111.599960    -56.056850    -65.849228    -54.627796    62.161213    89.912460    5.893488    -4.824651    6.492150    0.266253    24.588057    -5.284127    -2.628182    -4.143443    -9.542902    0.108636    -12.638721    -0.165746    -17.995207    -5.792847    -16.316822    -3.210676    36.383160    4.975994    24.869886    0.076516    -4.338419    -1.702945    -17.543430    3.857865    
3.024231    82.190987    -13.393877    1.982008    -0.045234    22.282383    -14.532380    -7.082679    -8.723021    9.558505    11.017446    -8.742821    2.463681    34.730614    -3.409964    4.233825    -32.486938    -1.323381    7.507660    7.574165    10.819057    -77.562386    43.583191    -6.732557    -1.225251    -20.737652    -127.085518    -40.279076    -9.316144    -37.427380    -12.318045    -1.794687    6.255322    -139.675735    -28.341291    175.438782    111.277107    -56.076698    -66.076447    -55.579571    60.656326    89.538132    5.780053    -4.661695    5.903123    0.435130    22.740635    -4.744708    -3.154325    -2.165150    -9.976150    0.205292    -12.439068    -0.312731    -17.939653    -5.259623    -17.505264    -2.617404    34.386948    4.119831    24.739410    1.968002    -4.339515    -1.804847    -17.541788    4.088447    
